<svg width="210" height="56" viewBox="0 0 210 56" fill="none" xmlns="http://www.w3.org/2000/svg">
  <rect width="56" height="56" rx="16" fill="url(#paint0_linear)"/>
  <path d="M16 40L27.9 15L40 40H34.2L31.7 34.3H24.1L21.6 40H16ZM26.1 29.6H29.8L27.9 25L26.1 29.6Z" fill="white"/>
  <path d="M72 38L82.6 17H88.1L98.7 38H92.7L90.7 33.6H79.8L77.8 38H72ZM82 28.7H88.5L85.2 21.6L82 28.7ZM101.1 17H107L113.1 30.7L119.2 17H125.1L115.7 38H110.5L101.1 17ZM137.4 38.5C130.6 38.5 126 34 126 27.5C126 21 130.6 16.5 137.4 16.5C144.2 16.5 148.8 21 148.8 27.5C148.8 34 144.2 38.5 137.4 38.5ZM137.4 33.5C140.8 33.5 143.1 31 143.1 27.5C143.1 24 140.8 21.5 137.4 21.5C134 21.5 131.7 24 131.7 27.5C131.7 31 134 33.5 137.4 33.5ZM152.2 38V17H162.8C168.4 17 171.8 19.8 171.8 24.4C171.8 27.4 170.2 29.7 167.4 30.9L173.2 38H166.5L161.7 31.8H157.8V38H152.2ZM157.8 27.2H162.4C164.8 27.2 166.1 26.2 166.1 24.5C166.1 22.8 164.8 21.8 162.4 21.8H157.8V27.2ZM176 38L186.6 17H192.1L202.7 38H196.7L194.7 33.6H183.8L181.8 38H176ZM186 28.7H192.5L189.2 21.6L186 28.7Z" fill="#2563EB"/>
  <defs>
    <linearGradient id="paint0_linear" x1="4" y1="4" x2="52" y2="52" gradientUnits="userSpaceOnUse">
      <stop stop-color="#2563EB"/>
      <stop offset="1" stop-color="#06B6D4"/>
    </linearGradient>
  </defs>
</svg>
